<svg width="477" height="119" viewBox="0 0 477 119" fill="none" xmlns="http://www.w3.org/2000/svg">
<g clip-path="url(#clip0_14_1890)">
<path d="M25.7065 43.0422L28.9099 46.2176L77.0996 93.6938L128.493 43.0424H115.64L77.0996 81.0309L38.5401 43.0424L25.7065 43.0422Z" fill="white"/>
<path d="M0 43.0422L3.2035 46.2176L16.0567 58.8805L22.4833 52.5492L12.8532 43.0617H0V43.0422ZM141.366 43.0422L109.252 74.7188L115.659 81.0308L154.199 43.0422H141.366ZM28.9098 58.8611L22.4831 65.1925L35.3363 77.8554L41.7631 71.524L28.9098 58.8611ZM48.1898 77.8556L41.7631 84.1869L77.0996 119L96.3796 100.006L92.331 96.0173L89.953 93.6938L77.0998 106.357L48.19 77.8748L48.1898 77.8556ZM102.806 81.0308L96.3993 87.3429L102.826 93.6742L109.253 87.3429L106.049 84.1867L102.826 81.0306L102.806 81.0308Z" fill="white"/>
<path d="M77.0996 0L56.9942 19.7881L56.896 19.8848H57.0926L62.4973 25.2095L68.0001 30.6504L77.0015 39.5183L80.6963 43.1583L86.1992 48.5797L77.0996 57.5443L67.9018 48.483L73.4048 43.0616H62.3989L56.896 48.483L77.0996 68.3678L97.1067 48.4635L91.702 43.1389L86.1992 37.7176L73.5227 25.2291L68.02 19.8075L77.1195 10.8621L86.3172 19.9237L80.8142 25.3449H91.8201L97.323 19.9237L77.0996 0Z" fill="white"/>
<path d="M86.199 48.5795L80.6963 54.0007L86.16 59.3834L91.7021 53.8845L86.1992 48.5986L86.199 48.5795Z" fill="white"/>
<path d="M68.0003 19.7881L73.5427 14.3473L68.0003 8.9646L62.4976 14.386L67.9808 19.8073L68.0003 19.7881Z" fill="white"/>
<path d="M206.428 62.7669L198.826 70.3795V80.9817H192.882V39.9906H198.826V62.89L221.413 39.9906H228.187L210.417 58.4365L229.312 80.9815H222.351L206.428 62.7669Z" fill="white"/>
<path d="M271.388 39.9906V80.9817H266.508L241.545 50.4234V80.9817H235.601V39.9906H240.481L265.445 70.5489V39.9906H271.388Z" fill="white"/>
<path d="M296.071 76.297L298.277 71.7356C301.374 74.4941 306.661 76.482 312.01 76.482C319.205 76.482 322.287 73.7235 322.287 70.1638C322.287 60.1472 297.088 66.4808 297.088 51.2556C297.088 44.9374 302.078 39.5438 313.011 39.5438C317.891 39.5438 322.929 40.8383 326.385 43.1806L324.43 47.8653C320.801 45.5846 316.703 44.5212 313.027 44.5212C305.957 44.5212 302.923 47.4492 302.923 51.0243C302.923 61.0408 328.122 54.7689 328.122 69.8246C328.122 76.0966 323.006 81.4747 312.01 81.4747C305.644 81.4747 299.418 79.3634 296.087 76.3277L296.071 76.297Z" fill="white"/>
<path d="M333.032 65.4637C333.032 56.2176 339.993 49.6528 349.442 49.6528C358.891 49.6528 365.787 56.2176 365.787 65.4637C365.787 74.7098 358.889 81.336 349.442 81.336C339.994 81.336 333.032 74.7251 333.032 65.4637ZM360.015 65.4637C360.015 58.8528 355.495 54.5688 349.442 54.5688C343.389 54.5688 338.805 58.8373 338.805 65.4637C338.805 72.0901 343.388 76.4047 349.442 76.4047C355.496 76.4047 360.015 72.0746 360.015 65.4637Z" fill="white"/>
<path d="M373.686 37.5251H379.395V80.9662H373.686V37.5251Z" fill="white"/>
<path d="M418.156 49.9456L404.376 80.9815H398.556L384.76 49.9456H390.704L401.513 74.8329L412.572 49.9456H418.156Z" fill="white"/>
<path d="M440.445 49.6528V55.0927C439.976 55.0311 439.554 55.0311 439.147 55.0311C433.031 55.0311 429.23 58.7142 429.23 65.51V80.9663H423.521V49.9457H428.996V55.1544C431.013 51.5176 434.94 49.653 440.46 49.653L440.445 49.6528Z" fill="white"/>
<path d="M444.247 65.4637C444.247 56.2176 451.206 49.6528 460.655 49.6528C470.104 49.6528 477 56.2176 477 65.4637C477 74.7098 470.103 81.336 460.655 81.336C451.208 81.336 444.247 74.7251 444.247 65.4637ZM471.228 65.4637C471.228 58.8528 466.708 54.5688 460.655 54.5688C454.602 54.5688 450.018 58.8373 450.018 65.4637C450.018 72.0901 454.585 76.4047 460.655 76.4047C466.725 76.4047 471.228 72.0746 471.228 65.4637Z" fill="white"/>
</g>
<defs>
<clipPath id="clip0_14_1890">
<rect width="477" height="119" fill="white"/>
</clipPath>
</defs>
</svg>
