<svg width="241" height="60" viewBox="0 0 241 60" fill="none" xmlns="http://www.w3.org/2000/svg">
<g id="Zas&#195;&#179;b 1i 1" clip-path="url(#clip0_16_398)">
<g id="Warstwa_4">
<g id="Group">
<g id="Group_2">
<path id="Vector" d="M12.988 21.7019L14.6064 23.3029L38.9539 47.2405L64.9199 21.702H58.4259L38.9539 40.8559L19.472 21.702L12.988 21.7019Z" fill="white"/>
<path id="Vector_2" d="M0 21.7019L1.61854 23.3029L8.11253 29.6876L11.3595 26.4953L6.49399 21.7117H0V21.7019ZM71.4238 21.7019L55.1988 37.6733L58.4359 40.8558L77.9079 21.7019H71.4238ZM14.6064 29.6778L11.3594 32.8701L17.8534 39.2547L21.1004 36.0625L14.6064 29.6778ZM24.3475 39.2548L21.1004 42.4471L38.9539 60L48.6949 50.423L46.6494 48.412L45.448 47.2405L38.954 53.6251L24.3475 39.2645L24.3475 39.2548ZM51.942 40.8558L48.7049 44.0384L51.9519 47.2306L55.199 44.0384L53.5804 42.447L51.952 40.8557L51.942 40.8558Z" fill="white"/>
<path id="Vector_3" d="M38.954 0L28.7959 9.9772L28.7463 10.026H28.8456L31.5763 12.7107L34.3565 15.454L38.9044 19.9252L40.7712 21.7605L43.5515 24.494L38.954 29.0139L34.3069 24.4452L37.0872 21.7117H31.5266L28.7463 24.4452L38.954 34.4712L49.0624 24.4354L46.3317 21.7507L43.5515 19.0173L37.1468 12.7205L34.3666 9.98699L38.964 5.47671L43.6111 10.0456L40.8308 12.7789H46.3914L49.1717 10.0456L38.954 0Z" fill="white"/>
<path id="Vector_4" d="M43.5513 24.494L40.7711 27.2274L43.5316 29.9413L46.3317 27.1688L43.5514 24.5036L43.5513 24.494Z" fill="white"/>
<path id="Vector_5" d="M34.3565 9.97724L37.1568 7.23399L34.3565 4.52002L31.5763 7.25348L34.3467 9.98694L34.3565 9.97724Z" fill="white"/>
</g>
<g id="Group_3">
<path id="Vector_6" d="M104.296 31.6472L100.455 35.4855V40.8311H97.452V20.1633H100.455V31.7092L111.867 20.1633H115.289L106.311 29.4638L115.858 40.831H112.341L104.296 31.6472Z" fill="white"/>
<path id="Vector_7" d="M137.116 20.1633V40.8311H134.651L122.038 25.4236V40.8311H119.035V20.1633H121.501L134.114 35.5709V20.1633H137.116Z" fill="white"/>
<path id="Vector_8" d="M149.587 38.469L150.702 36.1691C152.267 37.56 154.938 38.5623 157.64 38.5623C161.275 38.5623 162.832 37.1714 162.832 35.3766C162.832 30.3262 150.101 33.5197 150.101 25.8431C150.101 22.6574 152.622 19.938 158.146 19.938C160.612 19.938 163.157 20.5907 164.903 21.7717L163.915 24.1337C162.082 22.9838 160.011 22.4476 158.154 22.4476C154.582 22.4476 153.049 23.9239 153.049 25.7265C153.049 30.7768 165.781 27.6145 165.781 35.2056C165.781 38.368 163.196 41.0796 157.64 41.0796C154.424 41.0796 151.278 40.0151 149.595 38.4845L149.587 38.469Z" fill="white"/>
<path id="Vector_9" d="M168.262 33.0068C168.262 28.3449 171.778 25.0349 176.552 25.0349C181.326 25.0349 184.811 28.3449 184.811 33.0068C184.811 37.6687 181.326 41.0096 176.552 41.0096C171.779 41.0096 168.262 37.6764 168.262 33.0068ZM181.894 33.0068C181.894 29.6736 179.61 27.5135 176.552 27.5135C173.494 27.5135 171.178 29.6657 171.178 33.0068C171.178 36.3478 173.494 38.5233 176.552 38.5233C179.611 38.5233 181.894 36.34 181.894 33.0068Z" fill="white"/>
<path id="Vector_10" d="M188.801 18.9202H191.686V40.8232H188.801V18.9202Z" fill="white"/>
<path id="Vector_11" d="M211.269 25.1826L204.307 40.831H201.367L194.397 25.1826H197.4L202.861 37.7309L208.448 25.1826H211.269Z" fill="white"/>
<path id="Vector_12" d="M222.531 25.0349V27.7777C222.294 27.7466 222.081 27.7466 221.875 27.7466C218.785 27.7466 216.865 29.6037 216.865 33.0301V40.8232H213.98V25.1826H216.746V27.8088C217.765 25.9751 219.749 25.035 222.539 25.035L222.531 25.0349Z" fill="white"/>
<path id="Vector_13" d="M224.452 33.0068C224.452 28.3449 227.968 25.0349 232.742 25.0349C237.516 25.0349 241 28.3449 241 33.0068C241 37.6687 237.515 41.0096 232.742 41.0096C227.969 41.0096 224.452 37.6764 224.452 33.0068ZM238.083 33.0068C238.083 29.6736 235.8 27.5135 232.742 27.5135C229.684 27.5135 227.367 29.6657 227.367 33.0068C227.367 36.3478 229.675 38.5233 232.742 38.5233C235.809 38.5233 238.083 36.34 238.083 33.0068Z" fill="white"/>
</g>
</g>
</g>
</g>
<defs>
<clipPath id="clip0_16_398">
<rect width="241" height="60" fill="white"/>
</clipPath>
</defs>
</svg>
